%TF.GenerationSoftware,KiCad,Pcbnew,(5.1.10)-1*%
%TF.CreationDate,2021-05-26T11:20:56+00:00*%
%TF.ProjectId,esp32_programmer,65737033-325f-4707-926f-6772616d6d65,rev?*%
%TF.SameCoordinates,Original*%
%TF.FileFunction,Legend,Bot*%
%TF.FilePolarity,Positive*%
%FSLAX46Y46*%
G04 Gerber Fmt 4.6, Leading zero omitted, Abs format (unit mm)*
G04 Created by KiCad (PCBNEW (5.1.10)-1) date 2021-05-26 11:20:56*
%MOMM*%
%LPD*%
G01*
G04 APERTURE LIST*
%ADD10C,0.150000*%
G04 APERTURE END LIST*
D10*
X132428571Y-68142857D02*
X132476190Y-68285714D01*
X132523809Y-68333333D01*
X132619047Y-68380952D01*
X132761904Y-68380952D01*
X132857142Y-68333333D01*
X132904761Y-68285714D01*
X132952380Y-68190476D01*
X132952380Y-67809523D01*
X131952380Y-67809523D01*
X131952380Y-68142857D01*
X132000000Y-68238095D01*
X132047619Y-68285714D01*
X132142857Y-68333333D01*
X132238095Y-68333333D01*
X132333333Y-68285714D01*
X132380952Y-68238095D01*
X132428571Y-68142857D01*
X132428571Y-67809523D01*
X131952380Y-69000000D02*
X131952380Y-69190476D01*
X132000000Y-69285714D01*
X132095238Y-69380952D01*
X132285714Y-69428571D01*
X132619047Y-69428571D01*
X132809523Y-69380952D01*
X132904761Y-69285714D01*
X132952380Y-69190476D01*
X132952380Y-69000000D01*
X132904761Y-68904761D01*
X132809523Y-68809523D01*
X132619047Y-68761904D01*
X132285714Y-68761904D01*
X132095238Y-68809523D01*
X132000000Y-68904761D01*
X131952380Y-69000000D01*
X131952380Y-70047619D02*
X131952380Y-70238095D01*
X132000000Y-70333333D01*
X132095238Y-70428571D01*
X132285714Y-70476190D01*
X132619047Y-70476190D01*
X132809523Y-70428571D01*
X132904761Y-70333333D01*
X132952380Y-70238095D01*
X132952380Y-70047619D01*
X132904761Y-69952380D01*
X132809523Y-69857142D01*
X132619047Y-69809523D01*
X132285714Y-69809523D01*
X132095238Y-69857142D01*
X132000000Y-69952380D01*
X131952380Y-70047619D01*
X131952380Y-70761904D02*
X131952380Y-71333333D01*
X132952380Y-71047619D02*
X131952380Y-71047619D01*
X129928571Y-67761904D02*
X129928571Y-68095238D01*
X130452380Y-68238095D02*
X130452380Y-67761904D01*
X129452380Y-67761904D01*
X129452380Y-68238095D01*
X130452380Y-68666666D02*
X129452380Y-68666666D01*
X130452380Y-69238095D01*
X129452380Y-69238095D01*
X127952380Y-68333333D02*
X127476190Y-68000000D01*
X127952380Y-67761904D02*
X126952380Y-67761904D01*
X126952380Y-68142857D01*
X127000000Y-68238095D01*
X127047619Y-68285714D01*
X127142857Y-68333333D01*
X127285714Y-68333333D01*
X127380952Y-68285714D01*
X127428571Y-68238095D01*
X127476190Y-68142857D01*
X127476190Y-67761904D01*
X126952380Y-68666666D02*
X127952380Y-69333333D01*
X126952380Y-69333333D02*
X127952380Y-68666666D01*
X127952380Y-69714285D02*
X126952380Y-69714285D01*
X126952380Y-69952380D01*
X127000000Y-70095238D01*
X127095238Y-70190476D01*
X127190476Y-70238095D01*
X127380952Y-70285714D01*
X127523809Y-70285714D01*
X127714285Y-70238095D01*
X127809523Y-70190476D01*
X127904761Y-70095238D01*
X127952380Y-69952380D01*
X127952380Y-69714285D01*
X124452380Y-67738095D02*
X124452380Y-68309523D01*
X125452380Y-68023809D02*
X124452380Y-68023809D01*
X124452380Y-68547619D02*
X125452380Y-69214285D01*
X124452380Y-69214285D02*
X125452380Y-68547619D01*
X125452380Y-69595238D02*
X124452380Y-69595238D01*
X124452380Y-69833333D01*
X124500000Y-69976190D01*
X124595238Y-70071428D01*
X124690476Y-70119047D01*
X124880952Y-70166666D01*
X125023809Y-70166666D01*
X125214285Y-70119047D01*
X125309523Y-70071428D01*
X125404761Y-69976190D01*
X125452380Y-69833333D01*
X125452380Y-69595238D01*
X122000000Y-68238095D02*
X121952380Y-68142857D01*
X121952380Y-68000000D01*
X122000000Y-67857142D01*
X122095238Y-67761904D01*
X122190476Y-67714285D01*
X122380952Y-67666666D01*
X122523809Y-67666666D01*
X122714285Y-67714285D01*
X122809523Y-67761904D01*
X122904761Y-67857142D01*
X122952380Y-68000000D01*
X122952380Y-68095238D01*
X122904761Y-68238095D01*
X122857142Y-68285714D01*
X122523809Y-68285714D01*
X122523809Y-68095238D01*
X122952380Y-68714285D02*
X121952380Y-68714285D01*
X122952380Y-69285714D01*
X121952380Y-69285714D01*
X122952380Y-69761904D02*
X121952380Y-69761904D01*
X121952380Y-70000000D01*
X122000000Y-70142857D01*
X122095238Y-70238095D01*
X122190476Y-70285714D01*
X122380952Y-70333333D01*
X122523809Y-70333333D01*
X122714285Y-70285714D01*
X122809523Y-70238095D01*
X122904761Y-70142857D01*
X122952380Y-70000000D01*
X122952380Y-69761904D01*
X119452380Y-67761904D02*
X119452380Y-68380952D01*
X119833333Y-68047619D01*
X119833333Y-68190476D01*
X119880952Y-68285714D01*
X119928571Y-68333333D01*
X120023809Y-68380952D01*
X120261904Y-68380952D01*
X120357142Y-68333333D01*
X120404761Y-68285714D01*
X120452380Y-68190476D01*
X120452380Y-67904761D01*
X120404761Y-67809523D01*
X120357142Y-67761904D01*
X119452380Y-68666666D02*
X120452380Y-69000000D01*
X119452380Y-69333333D01*
X119452380Y-69571428D02*
X119452380Y-70190476D01*
X119833333Y-69857142D01*
X119833333Y-70000000D01*
X119880952Y-70095238D01*
X119928571Y-70142857D01*
X120023809Y-70190476D01*
X120261904Y-70190476D01*
X120357142Y-70142857D01*
X120404761Y-70095238D01*
X120452380Y-70000000D01*
X120452380Y-69714285D01*
X120404761Y-69619047D01*
X120357142Y-69571428D01*
M02*
