M48
; DRILL file {KiCad (5.1.10)-1} date 05/26/21 11:19:47
; FORMAT={-:-/ absolute / inch / decimal}
; #@! TF.CreationDate,2021-05-26T11:19:47+00:00
; #@! TF.GenerationSoftware,Kicad,Pcbnew,(5.1.10)-1
FMAT,2
INCH
T1C0.0118
T2C0.0157
T3C0.0394
T4C0.0197
%
G90
G05
T1
X4.4488Y-2.5591
X4.4488Y-2.6181
X4.4488Y-2.6772
X4.4488Y-2.7362
X4.4488Y-2.7953
X4.4488Y-2.8543
X4.4488Y-2.9134
X4.4488Y-3.189
X4.4488Y-3.248
X4.4488Y-3.3071
X4.4488Y-3.3661
X4.4488Y-3.4252
X4.5079Y-2.5591
X4.5079Y-3.4449
X4.5472Y-2.6575
X4.5472Y-2.7756
X4.5472Y-2.8937
X4.5669Y-2.5591
X4.5669Y-3.4449
X4.6063Y-3.1496
X4.626Y-2.5591
X4.626Y-3.4449
X4.6457Y-2.6772
X4.6457Y-2.7362
X4.6654Y-2.7953
X4.685Y-3.4449
X4.7047Y-2.8346
X4.7441Y-3.4449
X4.7835Y-3.1102
X4.8031Y-3.4449
X4.8228Y-3.1496
X4.8425Y-3.0512
X4.8622Y-2.6969
X4.8622Y-2.7559
X4.8622Y-2.815
X4.8622Y-2.874
X4.8622Y-3.4449
X4.9213Y-3.3268
X4.9213Y-3.3858
X4.9213Y-3.4449
X5.0591Y-2.815
X5.0787Y-3.0512
X5.1575Y-3.0512
X5.2362Y-3.248
X5.3346Y-2.5591
X5.3346Y-3.2874
X5.3543Y-2.9134
X5.3543Y-3.4449
X5.3937Y-2.5591
X5.3937Y-2.6378
X5.3937Y-3.3661
X5.4134Y-2.8346
X5.4134Y-3.4449
X5.4528Y-2.5591
X5.4724Y-3.4449
X5.4921Y-2.5984
X5.4921Y-2.6575
X5.4921Y-2.7165
X5.4921Y-2.7756
X5.4921Y-2.8346
X5.4921Y-2.8937
X5.4921Y-2.9528
X5.4921Y-3.2677
X5.4921Y-3.3268
X5.4921Y-3.3858
T2
X4.6949Y-3.1594
X4.9409Y-3.0906
X5.0Y-3.0906
X5.0394Y-3.2283
X5.1767Y-2.7958
X5.2559Y-2.7559
T3
X4.7146Y-2.5886
X4.8146Y-2.5886
X4.9146Y-2.5886
X5.0146Y-2.5886
X5.1146Y-2.5886
X5.2146Y-2.5886
T4
X5.06Y-3.3519
X5.2175Y-3.3519
T0
M30
