%TF.GenerationSoftware,KiCad,Pcbnew,(5.1.10)-1*%
%TF.CreationDate,2021-05-26T11:20:56+00:00*%
%TF.ProjectId,esp32_programmer,65737033-325f-4707-926f-6772616d6d65,rev?*%
%TF.SameCoordinates,Original*%
%TF.FileFunction,Paste,Top*%
%TF.FilePolarity,Positive*%
%FSLAX46Y46*%
G04 Gerber Fmt 4.6, Leading zero omitted, Abs format (unit mm)*
G04 Created by KiCad (PCBNEW (5.1.10)-1) date 2021-05-26 11:20:56*
%MOMM*%
%LPD*%
G01*
G04 APERTURE LIST*
%ADD10R,0.400000X1.850000*%
%ADD11R,1.690000X1.300000*%
%ADD12R,1.475000X0.900000*%
%ADD13R,0.800000X0.900000*%
%ADD14R,3.800000X2.000000*%
%ADD15R,1.500000X2.000000*%
%ADD16R,2.400000X1.900000*%
G04 APERTURE END LIST*
D10*
%TO.C,J1*%
X129223300Y-84454060D03*
X130523300Y-84454060D03*
X129873300Y-84454060D03*
X131173300Y-84454060D03*
X131823300Y-84454060D03*
D11*
X127253300Y-87289060D03*
X133793300Y-87289060D03*
D12*
X127235800Y-84929060D03*
X133810800Y-84929060D03*
%TD*%
%TO.C,C1*%
G36*
G01*
X121550000Y-85324999D02*
X121550000Y-86175001D01*
G75*
G02*
X121300001Y-86425000I-249999J0D01*
G01*
X120399999Y-86425000D01*
G75*
G02*
X120150000Y-86175001I0J249999D01*
G01*
X120150000Y-85324999D01*
G75*
G02*
X120399999Y-85075000I249999J0D01*
G01*
X121300001Y-85075000D01*
G75*
G02*
X121550000Y-85324999I0J-249999D01*
G01*
G37*
G36*
G01*
X118850000Y-85324999D02*
X118850000Y-86175001D01*
G75*
G02*
X118600001Y-86425000I-249999J0D01*
G01*
X117699999Y-86425000D01*
G75*
G02*
X117450000Y-86175001I0J249999D01*
G01*
X117450000Y-85324999D01*
G75*
G02*
X117699999Y-85075000I249999J0D01*
G01*
X118600001Y-85075000D01*
G75*
G02*
X118850000Y-85324999I0J-249999D01*
G01*
G37*
%TD*%
%TO.C,C2*%
G36*
G01*
X113824999Y-75950000D02*
X114675001Y-75950000D01*
G75*
G02*
X114925000Y-76199999I0J-249999D01*
G01*
X114925000Y-77100001D01*
G75*
G02*
X114675001Y-77350000I-249999J0D01*
G01*
X113824999Y-77350000D01*
G75*
G02*
X113575000Y-77100001I0J249999D01*
G01*
X113575000Y-76199999D01*
G75*
G02*
X113824999Y-75950000I249999J0D01*
G01*
G37*
G36*
G01*
X113824999Y-78650000D02*
X114675001Y-78650000D01*
G75*
G02*
X114925000Y-78899999I0J-249999D01*
G01*
X114925000Y-79800001D01*
G75*
G02*
X114675001Y-80050000I-249999J0D01*
G01*
X113824999Y-80050000D01*
G75*
G02*
X113575000Y-79800001I0J249999D01*
G01*
X113575000Y-78899999D01*
G75*
G02*
X113824999Y-78650000I249999J0D01*
G01*
G37*
%TD*%
%TO.C,C3*%
G36*
G01*
X119850000Y-73824999D02*
X119850000Y-74675001D01*
G75*
G02*
X119600001Y-74925000I-249999J0D01*
G01*
X118699999Y-74925000D01*
G75*
G02*
X118450000Y-74675001I0J249999D01*
G01*
X118450000Y-73824999D01*
G75*
G02*
X118699999Y-73575000I249999J0D01*
G01*
X119600001Y-73575000D01*
G75*
G02*
X119850000Y-73824999I0J-249999D01*
G01*
G37*
G36*
G01*
X122550000Y-73824999D02*
X122550000Y-74675001D01*
G75*
G02*
X122300001Y-74925000I-249999J0D01*
G01*
X121399999Y-74925000D01*
G75*
G02*
X121150000Y-74675001I0J249999D01*
G01*
X121150000Y-73824999D01*
G75*
G02*
X121399999Y-73575000I249999J0D01*
G01*
X122300001Y-73575000D01*
G75*
G02*
X122550000Y-73824999I0J-249999D01*
G01*
G37*
%TD*%
%TO.C,C4*%
G36*
G01*
X138500000Y-78725000D02*
X138000000Y-78725000D01*
G75*
G02*
X137775000Y-78500000I0J225000D01*
G01*
X137775000Y-78050000D01*
G75*
G02*
X138000000Y-77825000I225000J0D01*
G01*
X138500000Y-77825000D01*
G75*
G02*
X138725000Y-78050000I0J-225000D01*
G01*
X138725000Y-78500000D01*
G75*
G02*
X138500000Y-78725000I-225000J0D01*
G01*
G37*
G36*
G01*
X138500000Y-77175000D02*
X138000000Y-77175000D01*
G75*
G02*
X137775000Y-76950000I0J225000D01*
G01*
X137775000Y-76500000D01*
G75*
G02*
X138000000Y-76275000I225000J0D01*
G01*
X138500000Y-76275000D01*
G75*
G02*
X138725000Y-76500000I0J-225000D01*
G01*
X138725000Y-76950000D01*
G75*
G02*
X138500000Y-77175000I-225000J0D01*
G01*
G37*
%TD*%
%TO.C,C5*%
G36*
G01*
X138500000Y-80175000D02*
X138000000Y-80175000D01*
G75*
G02*
X137775000Y-79950000I0J225000D01*
G01*
X137775000Y-79500000D01*
G75*
G02*
X138000000Y-79275000I225000J0D01*
G01*
X138500000Y-79275000D01*
G75*
G02*
X138725000Y-79500000I0J-225000D01*
G01*
X138725000Y-79950000D01*
G75*
G02*
X138500000Y-80175000I-225000J0D01*
G01*
G37*
G36*
G01*
X138500000Y-81725000D02*
X138000000Y-81725000D01*
G75*
G02*
X137775000Y-81500000I0J225000D01*
G01*
X137775000Y-81050000D01*
G75*
G02*
X138000000Y-80825000I225000J0D01*
G01*
X138500000Y-80825000D01*
G75*
G02*
X138725000Y-81050000I0J-225000D01*
G01*
X138725000Y-81500000D01*
G75*
G02*
X138500000Y-81725000I-225000J0D01*
G01*
G37*
%TD*%
D13*
%TO.C,Q1*%
X130950000Y-68750000D03*
X129050000Y-68750000D03*
X130000000Y-70750000D03*
%TD*%
%TO.C,Q2*%
X135000000Y-70750000D03*
X134050000Y-68750000D03*
X135950000Y-68750000D03*
%TD*%
%TO.C,R1*%
G36*
G01*
X132775000Y-72775000D02*
X132775000Y-72225000D01*
G75*
G02*
X132975000Y-72025000I200000J0D01*
G01*
X133375000Y-72025000D01*
G75*
G02*
X133575000Y-72225000I0J-200000D01*
G01*
X133575000Y-72775000D01*
G75*
G02*
X133375000Y-72975000I-200000J0D01*
G01*
X132975000Y-72975000D01*
G75*
G02*
X132775000Y-72775000I0J200000D01*
G01*
G37*
G36*
G01*
X134425000Y-72775000D02*
X134425000Y-72225000D01*
G75*
G02*
X134625000Y-72025000I200000J0D01*
G01*
X135025000Y-72025000D01*
G75*
G02*
X135225000Y-72225000I0J-200000D01*
G01*
X135225000Y-72775000D01*
G75*
G02*
X135025000Y-72975000I-200000J0D01*
G01*
X134625000Y-72975000D01*
G75*
G02*
X134425000Y-72775000I0J200000D01*
G01*
G37*
%TD*%
%TO.C,R2*%
G36*
G01*
X130575000Y-72225000D02*
X130575000Y-72775000D01*
G75*
G02*
X130375000Y-72975000I-200000J0D01*
G01*
X129975000Y-72975000D01*
G75*
G02*
X129775000Y-72775000I0J200000D01*
G01*
X129775000Y-72225000D01*
G75*
G02*
X129975000Y-72025000I200000J0D01*
G01*
X130375000Y-72025000D01*
G75*
G02*
X130575000Y-72225000I0J-200000D01*
G01*
G37*
G36*
G01*
X132225000Y-72225000D02*
X132225000Y-72775000D01*
G75*
G02*
X132025000Y-72975000I-200000J0D01*
G01*
X131625000Y-72975000D01*
G75*
G02*
X131425000Y-72775000I0J200000D01*
G01*
X131425000Y-72225000D01*
G75*
G02*
X131625000Y-72025000I200000J0D01*
G01*
X132025000Y-72025000D01*
G75*
G02*
X132225000Y-72225000I0J-200000D01*
G01*
G37*
%TD*%
D14*
%TO.C,U1*%
X119250000Y-76850000D03*
D15*
X119250000Y-83150000D03*
X121550000Y-83150000D03*
X116950000Y-83150000D03*
%TD*%
%TO.C,U2*%
G36*
G01*
X124455000Y-81200000D02*
X124155000Y-81200000D01*
G75*
G02*
X124005000Y-81050000I0J150000D01*
G01*
X124005000Y-79400000D01*
G75*
G02*
X124155000Y-79250000I150000J0D01*
G01*
X124455000Y-79250000D01*
G75*
G02*
X124605000Y-79400000I0J-150000D01*
G01*
X124605000Y-81050000D01*
G75*
G02*
X124455000Y-81200000I-150000J0D01*
G01*
G37*
G36*
G01*
X125725000Y-81200000D02*
X125425000Y-81200000D01*
G75*
G02*
X125275000Y-81050000I0J150000D01*
G01*
X125275000Y-79400000D01*
G75*
G02*
X125425000Y-79250000I150000J0D01*
G01*
X125725000Y-79250000D01*
G75*
G02*
X125875000Y-79400000I0J-150000D01*
G01*
X125875000Y-81050000D01*
G75*
G02*
X125725000Y-81200000I-150000J0D01*
G01*
G37*
G36*
G01*
X126995000Y-81200000D02*
X126695000Y-81200000D01*
G75*
G02*
X126545000Y-81050000I0J150000D01*
G01*
X126545000Y-79400000D01*
G75*
G02*
X126695000Y-79250000I150000J0D01*
G01*
X126995000Y-79250000D01*
G75*
G02*
X127145000Y-79400000I0J-150000D01*
G01*
X127145000Y-81050000D01*
G75*
G02*
X126995000Y-81200000I-150000J0D01*
G01*
G37*
G36*
G01*
X128265000Y-81200000D02*
X127965000Y-81200000D01*
G75*
G02*
X127815000Y-81050000I0J150000D01*
G01*
X127815000Y-79400000D01*
G75*
G02*
X127965000Y-79250000I150000J0D01*
G01*
X128265000Y-79250000D01*
G75*
G02*
X128415000Y-79400000I0J-150000D01*
G01*
X128415000Y-81050000D01*
G75*
G02*
X128265000Y-81200000I-150000J0D01*
G01*
G37*
G36*
G01*
X129535000Y-81200000D02*
X129235000Y-81200000D01*
G75*
G02*
X129085000Y-81050000I0J150000D01*
G01*
X129085000Y-79400000D01*
G75*
G02*
X129235000Y-79250000I150000J0D01*
G01*
X129535000Y-79250000D01*
G75*
G02*
X129685000Y-79400000I0J-150000D01*
G01*
X129685000Y-81050000D01*
G75*
G02*
X129535000Y-81200000I-150000J0D01*
G01*
G37*
G36*
G01*
X130805000Y-81200000D02*
X130505000Y-81200000D01*
G75*
G02*
X130355000Y-81050000I0J150000D01*
G01*
X130355000Y-79400000D01*
G75*
G02*
X130505000Y-79250000I150000J0D01*
G01*
X130805000Y-79250000D01*
G75*
G02*
X130955000Y-79400000I0J-150000D01*
G01*
X130955000Y-81050000D01*
G75*
G02*
X130805000Y-81200000I-150000J0D01*
G01*
G37*
G36*
G01*
X132075000Y-81200000D02*
X131775000Y-81200000D01*
G75*
G02*
X131625000Y-81050000I0J150000D01*
G01*
X131625000Y-79400000D01*
G75*
G02*
X131775000Y-79250000I150000J0D01*
G01*
X132075000Y-79250000D01*
G75*
G02*
X132225000Y-79400000I0J-150000D01*
G01*
X132225000Y-81050000D01*
G75*
G02*
X132075000Y-81200000I-150000J0D01*
G01*
G37*
G36*
G01*
X133345000Y-81200000D02*
X133045000Y-81200000D01*
G75*
G02*
X132895000Y-81050000I0J150000D01*
G01*
X132895000Y-79400000D01*
G75*
G02*
X133045000Y-79250000I150000J0D01*
G01*
X133345000Y-79250000D01*
G75*
G02*
X133495000Y-79400000I0J-150000D01*
G01*
X133495000Y-81050000D01*
G75*
G02*
X133345000Y-81200000I-150000J0D01*
G01*
G37*
G36*
G01*
X133345000Y-76250000D02*
X133045000Y-76250000D01*
G75*
G02*
X132895000Y-76100000I0J150000D01*
G01*
X132895000Y-74450000D01*
G75*
G02*
X133045000Y-74300000I150000J0D01*
G01*
X133345000Y-74300000D01*
G75*
G02*
X133495000Y-74450000I0J-150000D01*
G01*
X133495000Y-76100000D01*
G75*
G02*
X133345000Y-76250000I-150000J0D01*
G01*
G37*
G36*
G01*
X132075000Y-76250000D02*
X131775000Y-76250000D01*
G75*
G02*
X131625000Y-76100000I0J150000D01*
G01*
X131625000Y-74450000D01*
G75*
G02*
X131775000Y-74300000I150000J0D01*
G01*
X132075000Y-74300000D01*
G75*
G02*
X132225000Y-74450000I0J-150000D01*
G01*
X132225000Y-76100000D01*
G75*
G02*
X132075000Y-76250000I-150000J0D01*
G01*
G37*
G36*
G01*
X130805000Y-76250000D02*
X130505000Y-76250000D01*
G75*
G02*
X130355000Y-76100000I0J150000D01*
G01*
X130355000Y-74450000D01*
G75*
G02*
X130505000Y-74300000I150000J0D01*
G01*
X130805000Y-74300000D01*
G75*
G02*
X130955000Y-74450000I0J-150000D01*
G01*
X130955000Y-76100000D01*
G75*
G02*
X130805000Y-76250000I-150000J0D01*
G01*
G37*
G36*
G01*
X129535000Y-76250000D02*
X129235000Y-76250000D01*
G75*
G02*
X129085000Y-76100000I0J150000D01*
G01*
X129085000Y-74450000D01*
G75*
G02*
X129235000Y-74300000I150000J0D01*
G01*
X129535000Y-74300000D01*
G75*
G02*
X129685000Y-74450000I0J-150000D01*
G01*
X129685000Y-76100000D01*
G75*
G02*
X129535000Y-76250000I-150000J0D01*
G01*
G37*
G36*
G01*
X128265000Y-76250000D02*
X127965000Y-76250000D01*
G75*
G02*
X127815000Y-76100000I0J150000D01*
G01*
X127815000Y-74450000D01*
G75*
G02*
X127965000Y-74300000I150000J0D01*
G01*
X128265000Y-74300000D01*
G75*
G02*
X128415000Y-74450000I0J-150000D01*
G01*
X128415000Y-76100000D01*
G75*
G02*
X128265000Y-76250000I-150000J0D01*
G01*
G37*
G36*
G01*
X126995000Y-76250000D02*
X126695000Y-76250000D01*
G75*
G02*
X126545000Y-76100000I0J150000D01*
G01*
X126545000Y-74450000D01*
G75*
G02*
X126695000Y-74300000I150000J0D01*
G01*
X126995000Y-74300000D01*
G75*
G02*
X127145000Y-74450000I0J-150000D01*
G01*
X127145000Y-76100000D01*
G75*
G02*
X126995000Y-76250000I-150000J0D01*
G01*
G37*
G36*
G01*
X125725000Y-76250000D02*
X125425000Y-76250000D01*
G75*
G02*
X125275000Y-76100000I0J150000D01*
G01*
X125275000Y-74450000D01*
G75*
G02*
X125425000Y-74300000I150000J0D01*
G01*
X125725000Y-74300000D01*
G75*
G02*
X125875000Y-74450000I0J-150000D01*
G01*
X125875000Y-76100000D01*
G75*
G02*
X125725000Y-76250000I-150000J0D01*
G01*
G37*
G36*
G01*
X124455000Y-76250000D02*
X124155000Y-76250000D01*
G75*
G02*
X124005000Y-76100000I0J150000D01*
G01*
X124005000Y-74450000D01*
G75*
G02*
X124155000Y-74300000I150000J0D01*
G01*
X124455000Y-74300000D01*
G75*
G02*
X124605000Y-74450000I0J-150000D01*
G01*
X124605000Y-76100000D01*
G75*
G02*
X124455000Y-76250000I-150000J0D01*
G01*
G37*
%TD*%
D16*
%TO.C,Y1*%
X135750000Y-81050000D03*
X135750000Y-76950000D03*
%TD*%
M02*
